<?xml version="1.0" standalone="no"?>
<!DOCTYPE svg PUBLIC "-//W3C//DTD SVG 20010904//EN"
 "http://www.w3.org/TR/2001/REC-SVG-20010904/DTD/svg10.dtd">
<svg version="1.0" xmlns="http://www.w3.org/2000/svg"
 width="2048.000000pt" height="2048.000000pt" viewBox="0 0 2048.000000 2048.000000"
 preserveAspectRatio="xMidYMid meet">
<metadata>
Created by potrace 1.14, written by Peter Selinger 2001-2017
</metadata>
<g transform="translate(0.000000,2048.000000) scale(0.100000,-0.100000)"
fill="#000000" stroke="none">
<path d="M3045 12579 c-82 -12 -179 -45 -245 -82 -118 -67 -234 -217 -299
-387 -27 -69 -1423 -3988 -1477 -4142 l-23 -68 838 0 837 0 204 585 205 584
1130 3 1130 3 78 22 c43 13 105 37 138 54 119 64 240 201 305 346 25 58 850
2349 927 2578 36 108 41 130 41 220 1 89 -2 106 -24 150 -29 56 -97 104 -179
126 -36 10 -422 13 -1786 15 -965 1 -1767 -2 -1800 -7z m1897 -260 c167 -36
258 -133 258 -274 0 -86 -39 -214 -230 -745 -100 -278 -248 -692 -330 -920
-223 -621 -251 -682 -369 -798 -113 -109 -257 -173 -435 -192 -50 -5 -216 -10
-370 -10 -260 0 -278 1 -274 18 3 9 184 525 402 1146 426 1209 427 1214 404
1336 -12 66 -27 96 -65 131 -68 64 -189 96 -390 106 -140 6 -143 7 -137 27 4
12 20 58 36 104 l30 82 708 0 c489 0 725 -4 762 -11z"/>
<path d="M7567 12583 c-3 -4 -43 -125 -90 -268 -97 -294 -121 -405 -115 -515
12 -203 140 -279 498 -296 77 -4 140 -8 140 -8 0 -1 -17 -48 -38 -106 l-39
-105 -403 -5 c-344 -4 -404 -7 -412 -20 -9 -16 -966 -2760 -999 -2865 -46
-145 -42 -282 9 -364 35 -59 125 -106 227 -121 43 -7 286 -9 639 -8 l569 3
723 2075 c398 1141 733 2111 744 2154 58 228 1 371 -170 429 -64 21 -78 21
-672 25 -333 2 -608 -1 -611 -5z"/>
<path d="M10355 12579 c-240 -35 -417 -172 -521 -406 -23 -50 -1524 -4256
-1524 -4268 0 -3 377 -4 837 -3 l837 3 158 450 c86 248 178 509 204 582 l46
132 1131 4 c1038 3 1137 4 1197 20 201 54 355 192 452 404 34 76 933 2584 956
2668 20 73 21 196 3 248 -17 51 -64 103 -114 129 -94 48 -80 47 -1897 46 -938
0 -1732 -4 -1765 -9z m1910 -264 c209 -54 278 -183 220 -410 -9 -38 -154 -452
-322 -920 -384 -1074 -386 -1079 -446 -1205 -43 -92 -60 -115 -136 -191 -97
-96 -180 -143 -317 -180 -71 -20 -112 -22 -421 -26 -285 -4 -343 -3 -343 8 0
8 176 514 391 1124 215 611 397 1135 405 1165 17 68 18 193 0 243 -46 127
-169 180 -448 194 -76 3 -138 9 -138 13 0 7 41 127 59 173 l11 27 713 0 c610
0 721 -2 772 -15z"/>
<path d="M15665 12575 c-218 -37 -384 -166 -490 -380 -50 -102 -590 -1626
-610 -1720 -39 -192 42 -281 305 -331 85 -16 185 -18 950 -24 758 -6 862 -8
919 -23 80 -22 118 -49 142 -101 38 -85 34 -102 -170 -694 -229 -663 -308
-886 -332 -933 -37 -75 -143 -145 -261 -175 -99 -24 -356 -30 -452 -10 -138
28 -230 97 -256 192 -22 79 -8 170 60 379 34 104 65 195 67 202 4 11 -145 13
-763 11 l-769 -3 -83 -235 c-106 -299 -132 -398 -132 -504 0 -113 12 -149 73
-211 44 -45 63 -57 122 -74 39 -11 120 -25 180 -31 69 -6 717 -10 1735 -10
1562 0 1629 1 1718 19 133 28 230 79 317 166 73 72 138 172 175 266 31 77 575
1633 594 1698 33 114 14 207 -55 265 -58 49 -107 68 -277 108 -31 7 -346 13
-932 17 -649 5 -895 10 -921 19 -60 20 -103 54 -127 102 -20 39 -23 56 -19
120 5 87 21 138 193 630 68 195 129 382 135 415 14 74 6 182 -16 227 -57 111
-157 153 -416 170 l-167 12 37 103 36 103 695 0 c742 0 766 -2 879 -51 63 -26
127 -95 142 -153 24 -86 7 -189 -66 -403 -37 -109 -70 -204 -72 -211 -4 -10
147 -12 747 -10 l753 3 84 245 c131 378 155 500 121 612 -15 52 -80 123 -138
153 -122 62 -9 58 -1875 61 -1401 2 -1714 0 -1780 -11z"/>
</g>
</svg>
